<svg xmlns="http://www.w3.org/2000/svg" width="32" height="32" viewBox="0 0 32 32" fill="none">
  <defs>
    <linearGradient id="g" x1="0" y1="0" x2="32" y2="32" gradientUnits="userSpaceOnUse">
      <stop stop-color="#7c5cff"/>
      <stop offset="1" stop-color="#5b3fd6"/>
    </linearGradient>
  </defs>
  <rect width="32" height="32" rx="8" fill="url(#g)"/>
  <path d="M12.2 11.5c-.5-.6-1.3-1-2.4-1-1.4 0-2.4.8-2.4 1.9 0 1 .7 1.5 2.2 1.8l1.1.2c2.1.4 3.2 1.4 3.2 3.1 0 2-1.6 3.3-4.1 3.3-1.7 0-3-.5-3.8-1.4l1.2-1.3c.6.7 1.5 1 2.6 1 1.4 0 2.3-.6 2.3-1.6 0-.9-.6-1.3-2-1.6l-1.2-.2c-2.1-.4-3.3-1.4-3.3-3.2 0-1.9 1.5-3.2 3.8-3.2 1.5 0 2.7.4 3.5 1.3l-1.2 1.4z" fill="white"/>
  <path d="M16.8 19.6h6.2v1.8h-8.4l4.4-8.4h-5.7V9h8.1l-4.6 8.6v2z" fill="white"/>
</svg>
